<svg width="250" height="56" viewBox="0 0 250 56" fill="none" xmlns="http://www.w3.org/2000/svg">
<path fill-rule="evenodd" clip-rule="evenodd" d="M87.2832 23.5934C87.1601 22.8842 87.0358 22.1677 86.9425 21.4473H86.9428C86.8688 20.8737 86.677 20.1905 86.2317 20.0697C85.8862 19.9761 85.5116 20.3892 85.183 20.7516L85.1827 20.752L85.1817 20.753L85.1817 20.7531C85.1219 20.819 85.0636 20.8832 85.0074 20.9424C82.7279 23.3393 81.3332 26.2537 80.1635 29.2832C78.9033 32.5465 78.0557 35.9267 77.2902 39.3413L77.2425 39.5551L77.2087 39.7071C76.991 40.687 76.7672 41.694 76.435 42.654C75.8867 44.2395 75.0499 44.7029 73.5029 44.3017C71.9645 43.9027 71.2365 42.7103 71.3503 41.1952C71.3909 40.6555 71.4636 40.1176 71.5363 39.5796L71.5363 39.5795C71.6893 38.4475 71.8423 37.3149 71.6967 36.1638C71.7097 36.1051 71.7307 36.0463 71.7518 35.9874C71.8203 35.7964 71.8887 35.6053 71.6793 35.4208V34.204C69.6533 36.9734 67.5041 39.4606 65.3642 41.937L65.3641 41.9371L65.3639 41.9373L65.3591 41.9428C65.0437 42.3079 64.7284 42.6727 64.4138 43.0382C62.7392 44.9835 60.9054 46.6111 58.6423 47.788C55.504 49.4205 51.3729 48.9653 48.8384 45.6473C48.4151 45.0929 48.4042 45.1048 47.9739 45.5788L47.9732 45.5796L47.9718 45.5812C47.9373 45.6191 47.9001 45.6601 47.8599 45.7039C46.903 46.7453 45.6386 46.5243 44.5051 46.2075C41.5417 45.3796 40.1825 43.2375 39.776 40.2847C39.6956 39.7018 39.6767 39.1145 39.6577 38.5279V38.5279C39.6294 37.6495 39.6011 36.7728 39.3668 35.9148C39.546 34.082 39.4664 32.2485 39.3789 30.4154C39.377 29.7414 39.3539 29.07 39.1102 28.4286C39.0674 28.3583 39.0321 28.2829 38.9968 28.2074C38.9134 28.0292 38.83 27.8509 38.6467 27.7395C35.7419 30.1611 33.9453 33.3623 32.3388 36.6931C31.1349 39.189 30.0892 41.7685 29.2826 44.4016C28.5731 46.7183 27.963 49.1041 27.7679 51.5523C27.7353 51.9616 27.6692 52.3655 27.6031 52.7699L27.6031 52.7699L27.6031 52.7699L27.6031 52.77L27.603 52.77L27.603 52.77L27.603 52.7701L27.603 52.7701L27.603 52.7701C27.4837 53.4992 27.3642 54.2299 27.44 54.9966C27.5225 55.8318 26.1364 56.2765 24.9733 55.8127C24.1541 55.486 23.5774 54.8498 23.0057 54.2192C22.8153 54.0092 22.6254 53.7998 22.4273 53.6026C22.0754 53.2523 22.1244 52.7466 22.1729 52.2462C22.1927 52.0419 22.2124 51.8384 22.2046 51.6467C22.029 47.2884 22.2283 42.9501 22.9872 38.6466C23.2064 38.5701 23.1182 38.4859 23.03 38.4017L23.0299 38.4016L23.0155 38.3879L23.0058 38.3784L22.9941 38.3667L23.6898 34.7589L24.1003 34.5402C24.0832 34.4326 24.0904 34.3208 24.1009 34.2086C24.1822 33.9978 24.1941 33.7757 24.206 33.5537C24.2128 33.4258 24.2197 33.2981 24.2398 33.1725C24.2449 32.9928 24.2924 32.8151 24.3399 32.6374C24.4315 32.2942 24.5232 31.9511 24.3101 31.5939C24.4072 31.0644 24.5039 30.5348 24.6006 30.0052C25.0227 29.7049 25.0124 29.2841 25.0022 28.8633C24.9943 28.5387 24.9864 28.2142 25.1769 27.9451C25.3506 27.6984 25.5022 27.4425 25.5088 27.127C25.6901 26.7766 25.6832 26.4058 25.6763 26.0352C25.6726 25.8363 25.6689 25.6375 25.6943 25.4419C26.1531 24.8413 26.1857 24.1374 26.2182 23.4336C26.2479 22.7922 26.2775 22.1508 26.6298 21.5874C26.6459 21.5893 26.6615 21.5909 26.6761 21.5919C26.6524 21.5884 26.6305 21.5848 26.6305 21.5848C26.4333 21.1504 26.6393 20.8392 26.8454 20.5281L26.8454 20.5281C26.9566 20.3601 27.0679 20.192 27.1156 20.0046C26.8995 19.5105 26.9383 19.0474 27.2841 18.6218C27.2829 18.8431 27.2582 19.0627 27.2336 19.2825C27.2092 19.4995 27.1849 19.7166 27.1831 19.9355C27.2209 19.9201 27.2574 19.9447 27.2923 20.0105C27.2558 20.0099 27.2196 20.0082 27.1831 20.0069V20.0128C27.1802 20.2565 27.1295 20.4927 27.0787 20.7293L27.0787 20.7293C27.0307 20.9529 26.9827 21.1769 26.9749 21.4078C26.9666 21.4318 26.9571 21.4539 26.9459 21.4743C26.9466 21.4491 26.948 21.4236 26.9493 21.398C26.9552 21.2873 26.9613 21.1742 26.9127 21.0697C26.9212 20.9431 26.7653 21.1457 26.9097 21.0993H26.9101C26.9138 21.1358 26.92 21.1739 26.9261 21.212L26.9261 21.2121C26.9585 21.4124 26.9908 21.6126 26.6785 21.5922C26.6961 21.5948 26.7147 21.5976 26.726 21.5991C26.7327 21.6 26.7368 21.6005 26.7367 21.6003C26.8393 21.6003 26.9048 21.5522 26.9472 21.4743C26.9439 21.6026 26.9584 21.7243 27.0808 21.8207C27.3615 21.4482 27.3306 21.0393 27.2996 20.6305C27.2839 20.4222 27.2682 20.214 27.2936 20.0105C27.3107 19.8863 27.3474 19.762 27.3842 19.6377C27.4845 19.2982 27.5848 18.9588 27.285 18.6218C27.6825 17.5876 27.8753 16.5029 28.068 15.4183V15.4182C28.2702 14.2804 28.4724 13.1426 28.9109 12.0632C29.1187 12.0222 29.1105 11.8904 29.1023 11.7586C29.0987 11.7009 29.0951 11.6432 29.1096 11.5931C29.284 10.8812 29.4708 10.1711 29.6575 9.46106L29.6576 9.46085L29.6577 9.4606C30.1157 7.7189 30.5738 5.97717 30.85 4.20722C30.8695 4.08211 30.8912 3.95463 30.9132 3.82528C31.0891 2.79094 31.2854 1.63714 30.5609 0.618224C30.3945 0.384311 30.6463 0.31497 30.8723 0.252727L30.923 0.238634C31.7967 -0.00872442 32.6888 -0.0153031 33.5775 0.00969589C35.1031 0.0527862 35.7883 0.906699 35.7922 2.6267C35.7998 5.82492 35.0528 8.89355 34.2347 11.953C34.0211 12.752 33.7908 13.5483 33.5605 14.3447L33.5604 14.3449L33.5603 14.3451L33.5603 14.3453L33.5602 14.3455L33.5602 14.3457L33.5601 14.3459L33.5601 14.3462L33.56 14.3464C33.0186 16.2184 32.4772 18.0906 32.1509 19.9993C31.8678 21.656 31.5109 23.297 31.1541 24.9374C30.7317 26.8795 30.3095 28.8208 30.0099 30.7867C29.992 30.9044 29.9528 31.0187 29.9137 31.1327C29.8954 31.1863 29.877 31.2398 29.8609 31.2936C30.1863 31.4486 30.3092 31.2686 30.4304 31.0912C30.4975 30.993 30.5641 30.8955 30.6642 30.8561L30.6543 30.864C31.4663 30.2389 32.0932 29.4448 32.7194 28.6517L32.7195 28.6516C33.0024 28.2932 33.2852 27.9351 33.5848 27.5928L33.7113 27.448C34.3477 26.719 34.972 26.0039 35.8034 25.4991C38.1244 24.0906 42.1755 25.4965 43.0854 28.0342C43.4933 29.1717 43.6475 30.3516 43.7061 31.5676C43.8586 34.7459 44.0749 37.9208 44.2912 41.0955L44.3547 42.0287C44.3817 42.43 44.5172 42.8346 44.662 43.2152C45.111 44.3957 45.7741 44.5355 46.7375 43.6803C46.973 43.4711 47.1359 43.3033 46.9395 42.9237C45.6136 40.3604 45.806 37.6894 46.4412 34.9964C46.6941 34.7356 46.9082 34.4563 46.875 34.0626C46.9182 33.9148 46.9542 33.7649 46.9902 33.615C47.0722 33.2733 47.1543 32.9316 47.3207 32.6156C47.3454 32.4836 47.4005 32.3628 47.4557 32.242L47.4557 32.242L47.4557 32.2419L47.4557 32.2419L47.4557 32.2419L47.4557 32.2418L47.4557 32.2418L47.4557 32.2418L47.4558 32.2417C47.5071 32.1293 47.5584 32.0168 47.5852 31.8952C47.6577 31.7439 47.7295 31.592 47.8012 31.4402L47.8012 31.44C48.1434 30.7156 48.4856 29.991 48.9207 29.3144C48.9361 29.1628 48.9516 29.0112 48.9667 28.8595C49.4368 28.6513 49.8292 28.3812 49.821 27.7921C50.09 27.5791 49.9848 27.3742 49.8797 27.1693L49.8797 27.1692L49.8796 27.1692C49.8521 27.1156 49.8246 27.062 49.8039 27.0083C50.2384 25.9867 50.8463 25.0645 51.4541 24.1425L51.4801 24.1031C52.1561 23.9952 52.7386 23.8209 52.3126 22.9325C53.4817 20.546 55.3411 18.7524 57.3532 17.0906C59.3841 15.4133 64.1964 17.0212 64.7555 19.5869C64.9971 20.6955 64.5103 21.6345 64.0339 22.5534L64.0338 22.5535L64.0336 22.5539C63.8931 22.8248 63.7536 23.094 63.6339 23.3653C62.0935 26.856 59.4304 29.5013 56.744 32.1222C55.35 33.482 53.7672 34.5261 52.008 35.3264C51.5847 35.5188 51.2794 35.7191 51.1281 36.2395C50.3745 38.8318 50.1969 41.4294 50.962 44.0369C51.3844 45.4763 51.7005 45.5842 53.1961 45.2582C55.2194 44.8174 56.8286 43.6431 58.4045 42.4063C62.3185 39.3347 65.8591 35.8842 69.0922 32.1012C69.4982 31.6262 69.9099 31.1528 70.3216 30.6792C70.9444 29.963 71.5674 29.2465 72.1714 28.524C72.9424 27.602 72.8519 26.1853 72.7628 24.9656C72.7187 24.3613 72.8858 24.1327 73.3647 23.8693C75.1857 22.867 76.5291 23.4538 76.9827 25.4935C77.0038 25.5885 77.0258 25.6833 77.0533 25.8024L77.0955 25.9853C77.6017 25.6421 77.808 25.1932 78.0106 24.7522L78.0419 24.6844C79.03 22.545 80.402 20.6829 82.0545 19.0066C83.7992 17.2373 87.1497 17.1261 88.949 18.8191C89.991 19.7997 90.0766 20.9019 89.4345 22.172C89.3835 22.2729 89.3338 22.3741 89.2844 22.4749L89.2843 22.4751C88.8721 23.3155 88.4747 24.1258 87.4333 24.4705C87.385 24.1796 87.3342 23.8871 87.2832 23.5934ZM54.4175 27.7595L54.4174 27.7597C54.0275 28.5692 53.6376 29.3786 53.2198 30.172V30.1723C53.195 30.2194 53.1692 30.2664 53.1432 30.3138C52.9754 30.6196 52.7999 30.9395 52.8393 31.3736C52.892 31.3368 52.9406 31.3044 52.9861 31.2742C53.0749 31.215 53.1514 31.164 53.2215 31.1055C56.0692 28.7282 58.0992 25.689 60.1264 22.6541C60.2736 22.4337 60.4208 22.2134 60.5682 21.9933C60.7841 21.6711 60.8993 21.2844 61.0151 20.8954C61.0939 20.6308 61.173 20.3651 61.2843 20.1181C61.4731 19.699 61.2843 19.3129 61.0922 19.0941C60.9516 18.9341 60.713 19.1238 60.5058 19.2885L60.5058 19.2885L60.5057 19.2886L60.5055 19.2887C60.4492 19.3335 60.3952 19.3764 60.3462 19.4099C59.69 19.8576 59.14 20.422 58.592 21.001C56.721 22.9774 55.5692 25.3685 54.4175 27.7595ZM137.594 16.0637C137.009 16.2509 136.573 16.1933 136.492 15.4173C136.416 14.6833 136.306 13.953 136.172 13.0694L136.172 13.0642C136.109 12.6472 136.041 12.1962 135.968 11.6945C135.748 11.0188 136.325 10.8925 136.921 10.7621C137.203 10.7003 137.49 10.6376 137.698 10.5152C138.875 9.82283 140.004 10.106 140.818 11.0942C141.576 12.0162 141.329 13.4349 140.528 14.3358C139.708 15.2588 138.7 15.7104 137.594 16.0637ZM49.8203 27.7918L49.6463 27.7651L49.6466 27.7655L49.6414 27.7727C49.6391 27.776 49.6368 27.7793 49.6341 27.7826C49.5467 28.06 49.3776 28.2871 49.2085 28.5142L49.2084 28.5142L49.2084 28.5143L49.2084 28.5143L49.2083 28.5144L49.2083 28.5144L49.2083 28.5144L49.2082 28.5145L49.2082 28.5145L49.2082 28.5146L49.2081 28.5146L49.2081 28.5147L49.2081 28.5147C49.124 28.6276 49.04 28.7404 48.966 28.8595C48.8876 28.5202 49.0516 28.2721 49.2156 28.024C49.28 27.9267 49.3443 27.8294 49.394 27.7267C49.4165 27.671 49.4363 27.6138 49.456 27.5566L49.456 27.5565L49.456 27.5565L49.4561 27.5565L49.4561 27.5564L49.4561 27.5564L49.4561 27.5564C49.5278 27.3487 49.5995 27.141 49.8032 27.0083C49.7673 27.1086 49.763 27.2159 49.7587 27.3233C49.754 27.4384 49.7494 27.5536 49.7058 27.6602C49.7469 27.6849 49.7854 27.7273 49.8203 27.7918ZM22.7882 23.689C22.7566 22.5331 22.4161 21.5121 21.8339 20.5358C21.3458 19.7178 20.5373 19.6398 19.7251 19.5842C19.5722 19.5737 19.2209 19.6954 19.4367 19.9829C19.6662 20.2886 19.6252 20.6091 19.5844 20.9274C19.5562 21.1479 19.528 21.3673 19.5899 21.5802C19.8003 21.7586 19.7853 21.9937 19.7704 22.2289L19.7672 22.2792C19.8524 22.4459 19.7631 22.5796 19.6739 22.7133C19.5797 22.8545 19.4855 22.9956 19.5965 23.1755C19.4819 23.4689 19.4166 23.7764 19.3512 24.0839C19.2691 24.4702 19.187 24.8564 19.0074 25.2146C18.9596 25.32 18.9673 25.4333 18.975 25.5466C18.9842 25.6836 18.9935 25.8207 18.9048 25.9438C18.8928 25.9879 18.8888 26.0355 18.8848 26.0832C18.8741 26.211 18.8634 26.3388 18.6989 26.3968C18.6306 26.516 18.627 26.653 18.6234 26.7901C18.6184 26.9756 18.6135 27.1612 18.4485 27.3026L18.3374 27.7211L18.2262 28.1401C18.3471 28.4208 18.2887 28.6945 18.2303 28.9681C18.1889 29.1619 18.1476 29.3558 18.1699 29.5522C18.217 29.8805 18.1163 30.1696 17.9347 30.4377C17.6769 30.8785 17.5114 31.3472 17.5022 31.8636C17.4693 32.1675 17.3207 32.4222 17.1721 32.677L17.1721 32.6771L17.1325 32.7452C17.0736 33.3754 16.9374 33.9853 16.6634 34.5593C16.6598 34.9329 16.4667 35.199 16.1782 35.4112C16.3328 35.7111 16.2381 35.9967 16.1434 36.2823L16.1253 36.3371C15.7709 36.4889 15.6172 36.7941 15.4455 37.1347C15.3259 37.372 15.1977 37.6265 14.9868 37.8585C14.9868 37.7148 14.9873 37.5912 14.9878 37.4805C14.9886 37.2741 14.9892 37.1129 14.9862 36.9519C14.9694 36.0203 14.9521 35.0888 14.9348 34.1572L14.9347 34.1558V34.1558L14.9347 34.1557L14.9347 34.1556L14.9347 34.1554L14.9347 34.1553L14.9347 34.1551L14.9347 34.155L14.9347 34.1549L14.9347 34.1547L14.9347 34.1546L14.9347 34.1545C14.9023 32.414 14.8699 30.6735 14.8415 28.9328L14.8396 28.8152C14.8265 27.9457 14.8129 27.0466 14.2823 26.3379C13.5836 25.4046 12.7064 25.5861 11.8301 25.7675C11.4521 25.8457 11.0743 25.9239 10.711 25.9126C10.0647 25.8925 9.3943 25.9307 9.2874 26.8086C9.19889 26.9586 9.14642 27.1245 9.09394 27.2904C9.02433 27.5104 8.9547 27.7306 8.80091 27.9138C8.74621 27.9996 8.68273 28.0797 8.61925 28.1598C8.49527 28.3163 8.37129 28.4727 8.31277 28.6713C8.19304 29.1526 8.03186 29.616 7.75029 30.0305C7.61066 30.3265 7.51047 30.6396 7.41028 30.9527C7.23434 31.5026 7.05838 32.0526 6.66876 32.5097C6.8007 32.8338 6.67206 33.1025 6.54339 33.3712C6.45424 33.5574 6.36508 33.7437 6.36252 33.9484C6.2191 34.4813 6.00365 34.9839 5.7234 35.4589C5.30927 36.3095 4.89514 37.1605 4.3547 38.2713C4.23551 35.7255 4.41878 33.486 4.60091 31.2604L4.63496 30.8433C4.67888 30.3023 4.73588 29.7617 4.79289 29.221C5.00228 27.235 5.21181 25.2476 4.7741 23.2377C4.6241 22.5495 4.24616 22.2686 3.7192 22.3545L3.59041 22.3753C2.86441 22.4922 2.10295 22.6147 1.5285 23.1702C1.52656 23.1721 1.5341 23.1811 1.5442 23.1932C1.56141 23.2137 1.58605 23.2432 1.58377 23.261C1.3693 24.9748 1.11602 26.6819 0.706169 28.3621C0.901089 28.7003 0.903276 29.068 0.905465 29.4359C0.905935 29.515 0.906406 29.5941 0.908792 29.6729C0.902285 29.7362 0.919473 29.8009 0.936661 29.8655C0.968994 29.9872 1.00132 30.1088 0.875899 30.2209L0.747083 30.7195L0.651566 31.089C0.390889 31.3393 0.418022 31.6366 0.445161 31.934C0.45487 32.0405 0.46458 32.1469 0.461113 32.2511C0.599476 32.2432 0.631237 32.1327 0.663012 32.0221C0.670745 31.9952 0.678478 31.9683 0.687749 31.9429C0.698066 32.0838 0.714497 32.2252 0.730928 32.3666C0.799885 32.9601 0.868835 33.5536 0.485783 34.108C0.432332 34.4812 0.486364 34.9031 0.537147 35.2996C0.596681 35.7645 0.65175 36.1945 0.523939 36.4704C-0.0296868 37.6649 -0.0116415 38.8562 0.0064188 40.0484C0.0110104 40.3515 0.015603 40.6547 0.0108024 40.958C-0.0237357 43.1471 0.526242 43.748 3.10673 44.6743C4.0886 45.0266 5.58229 44.4256 6.53521 43.278C7.30952 42.3455 7.91048 41.3087 8.38349 40.1923C8.75891 39.3061 9.14748 38.4254 9.55807 37.4947L9.55832 37.4941C9.74268 37.0762 9.93148 36.6483 10.1255 36.2052C10.5827 37.0105 10.6683 37.7111 10.5702 38.3492C10.2364 40.5251 10.9946 41.8895 13.0642 42.8471C15.3582 43.9085 16.6144 43.7977 18.1078 41.7415C18.3946 41.3467 18.6233 40.9063 18.8495 40.4706L18.8962 40.3807C21.6145 35.1477 22.9497 29.596 22.7882 23.6893V23.689ZM26.6288 21.5874L26.6185 21.5861L26.6184 21.5861C26.6121 21.5853 26.6057 21.5846 26.5989 21.5835L26.6301 21.5851L26.6301 21.5848H26.6305V21.5852H26.6301L26.6288 21.5874ZM52.3123 22.9325C51.913 23.2364 51.6702 23.6515 51.4798 24.1032C51.9294 23.8347 52.2422 23.4693 52.3123 22.9325ZM248.208 18.4047C246.217 17.0952 243.389 17.4199 241.673 19.1797C240.143 20.7484 238.849 22.4845 237.939 24.4933L237.939 24.4941C237.695 25.0307 237.444 25.5842 236.941 25.9972C236.929 25.9552 236.918 25.9139 236.907 25.8732L236.87 25.7376L236.87 25.7369C236.822 25.5599 236.777 25.3931 236.725 25.2288C236.156 23.4233 234.856 22.9118 233.209 23.8693C233.143 23.9079 233.067 23.9362 232.99 23.9647C232.744 24.0563 232.491 24.1506 232.521 24.5979C232.6 25.7469 232.476 26.8871 232.352 28.0275C232.291 28.5864 232.23 29.1452 232.193 29.7052C232.139 30.5203 232.022 31.3297 231.904 32.1388C231.714 33.4441 231.524 34.7489 231.603 36.076C231.628 36.4974 231.551 36.9176 231.474 37.3375C231.344 38.0497 231.214 38.761 231.58 39.4752L231.549 39.5712C231.431 39.932 231.313 40.2928 231.383 40.6841C231.4 40.7472 231.396 40.8091 231.372 40.8699C231.252 41.0916 231.173 41.3265 231.148 41.5781C231.267 43.4307 232.27 44.3385 234.355 44.479C235.062 44.5267 236.207 43.3251 236.364 42.1597C236.449 41.5327 236.639 40.9373 236.828 40.3456C236.987 39.8501 237.144 39.3571 237.238 38.8503C238.052 34.4735 239.397 30.2746 241.256 26.2376C242.177 24.2387 243.39 22.423 244.911 20.824C245.935 19.7487 246.334 19.8343 246.7 21.3092C246.877 22.0232 246.974 22.757 247.071 23.4956C247.115 23.8275 247.159 24.1605 247.21 24.4929C247.822 24.1125 248.451 23.3723 249.099 22.2723C250.015 20.7161 249.71 19.3925 248.208 18.405L248.208 18.4047ZM115.314 24.8419C115.492 24.7006 115.689 24.5438 115.926 24.7666V24.7672C116.086 24.917 116.03 25.086 115.973 25.2561C115.958 25.3023 115.942 25.3485 115.931 25.3945C115.332 27.8734 114.278 30.0733 112.902 32.284C110.523 36.1069 107.635 39.4476 104.72 42.8189L104.519 43.0514C102.867 44.9612 101.082 46.5848 98.8571 47.7545C95.6911 49.4186 91.7166 48.8742 89.0036 45.7154C86.2221 42.4767 85.6241 38.9489 86.5941 34.9547C86.6504 34.7232 86.7705 34.5151 86.8898 34.3083C87.088 33.9649 87.2843 33.6248 87.1839 33.186C87.2492 32.9844 87.3643 32.8072 87.4795 32.63C87.6287 32.4002 87.7779 32.1705 87.8187 31.8877C87.9283 31.4644 88.1256 31.0807 88.3228 30.697L88.3229 30.6969L88.323 30.6968L88.323 30.6966L88.3231 30.6965L88.3232 30.6964L88.3232 30.6963C88.4037 30.5398 88.4841 30.3834 88.5585 30.2243C88.6502 30.0888 88.7076 29.9367 88.765 29.7847C88.8295 29.6138 88.894 29.4429 89.0072 29.2957C89.1904 29.0204 89.295 28.7125 89.3733 28.3941C90.5647 25.4531 92.287 22.8272 94.1935 20.3112C94.8366 19.4629 95.5865 18.7116 96.4013 18.031C96.6026 17.8629 96.7988 17.654 96.996 17.4441C97.4743 16.9349 97.9584 16.4197 98.5341 16.4646C98.8426 16.4888 99.1548 16.5047 99.4683 16.5208C100.839 16.5909 102.236 16.6624 103.477 17.4221C104.745 18.1984 105.207 19.8046 104.683 21.299C103.119 25.7521 100.08 29.1253 96.7292 32.2834C95.4056 33.531 93.93 34.5432 92.2577 35.2639C91.6732 35.5158 91.3459 35.8875 91.1749 36.5608C90.5311 39.0953 90.294 41.6152 91.1594 44.1342C91.6212 45.4786 91.8972 45.5736 93.2481 45.2878C94.9135 44.9355 96.3388 44.1056 97.6628 43.0997C101.872 39.9025 105.658 36.2632 109.11 32.2597C110.364 30.8051 111.563 29.3081 112.762 27.8112L112.762 27.811C113.397 27.0187 114.031 26.2265 114.674 25.4406C114.836 25.2416 115.027 25.057 115.233 24.9047C115.25 24.8923 115.267 24.8791 115.284 24.8656L115.314 24.8419ZM94.717 27.4593L94.717 27.4594L94.7169 27.4595L94.7168 27.4597L94.7168 27.4598L94.7167 27.4599L94.7166 27.4601C94.3251 28.2627 93.9336 29.0653 93.5133 29.8506V29.8503L93.4936 29.8867C93.473 29.9249 93.452 29.963 93.4309 30.0013C93.2498 30.3307 93.0648 30.667 93.06 31.0515C93.3763 31.19 93.5224 31.0255 93.6581 30.8727C93.6932 30.8331 93.7277 30.7943 93.7642 30.7617C96.5556 28.2773 98.62 25.21 100.614 22.1022C101.08 21.3753 101.477 20.5276 101.471 19.5852C101.468 19.028 101.272 18.9079 100.801 19.2043C100.158 19.6089 99.6123 20.1201 99.0719 20.651C97.0865 22.6015 95.9018 25.0304 94.717 27.4592L94.717 27.4593ZM166.268 17.2607C165.155 16.6601 163.933 16.4733 162.686 16.339C162.514 16.3206 162.342 16.2804 162.172 16.2407C161.627 16.1135 161.099 15.9904 160.643 16.5936C160.638 16.7489 160.55 16.815 160.403 16.8203C160.059 16.7765 159.84 16.9387 159.706 17.241C159.593 17.4693 159.365 17.5472 159.136 17.625C158.864 17.7174 158.593 17.8098 158.515 18.1538C158.197 17.8397 157.962 18.0457 157.746 18.235L157.745 18.2351C157.713 18.2632 157.682 18.291 157.65 18.3166C156.735 19.0605 155.827 19.8126 154.919 20.5648C154.613 20.8181 154.307 21.0714 154.001 21.3244C154.024 21.8969 153.633 21.9587 153.241 22.0205L153.179 22.0304C153.157 22.034 153.135 22.0376 153.113 22.0414L152.668 22.5026C152.592 22.5774 152.509 22.6487 152.427 22.72L152.427 22.7201C152.239 22.8822 152.052 23.0444 151.935 23.247C151.804 23.4748 151.952 23.4513 152.087 23.4299C152.129 23.4233 152.168 23.417 152.199 23.418L151.984 23.6134C151.604 23.4967 151.531 23.7341 151.505 24.0262C151.036 23.7731 150.823 24.0766 150.617 24.3706L150.617 24.3713C150.59 24.4095 150.563 24.4475 150.536 24.4841C150.432 24.6255 150.318 24.7637 150.205 24.9013L150.205 24.9014L150.205 24.9017L150.205 24.9021L150.204 24.9023L150.204 24.9027L150.204 24.9029C150.029 25.1155 149.856 25.3264 149.719 25.5446C149.586 25.7567 149.442 25.9677 149.298 26.1799L149.298 26.1801C148.696 27.0653 148.08 27.9708 148.137 29.0655C148.174 29.7703 147.915 30.1649 147.598 30.6459L147.597 30.6481L147.552 30.7168L147.504 30.7898C146.869 31.7693 146.167 32.6861 145.416 33.5735C144.92 34.1595 144.501 34.8023 144.082 35.4451C143.512 36.3195 142.942 37.194 142.179 37.9253C142.001 38.1967 141.794 38.4434 141.548 38.6566C140.526 40.5623 138.943 41.9114 137.354 43.265C136.88 43.6694 136.405 44.0743 135.944 44.4945C135.671 44.1446 135.635 43.8402 135.599 43.5413L135.592 43.4835C135.589 43.4614 135.586 43.4393 135.583 43.4172C135.101 39.8466 135.661 36.3415 136.402 32.8808C136.456 32.6309 136.508 32.3803 136.56 32.1294L136.56 32.1282C136.829 30.8298 137.099 29.5221 137.612 28.2563C137.856 27.6544 137.917 26.9882 137.979 26.3144C138.042 25.6314 138.105 24.9407 138.36 24.3012C138.635 23.6105 138.326 23.3536 137.764 23.1266C137.236 22.9133 136.696 22.9347 136.156 22.9561C135.908 22.966 135.659 22.9759 135.412 22.9628C134.338 22.9062 133.766 23.4559 133.495 24.467C133.136 25.8058 132.741 27.137 132.162 28.404C132.102 28.5017 132.046 28.6695 132.114 28.7089C132.655 29.0232 132.427 29.032 132.202 29.0406C132.089 29.045 131.978 29.0493 131.965 29.0921C131.952 29.3089 131.939 29.5254 131.926 29.7421C131.843 29.9257 131.825 30.1013 131.991 30.2562C132.292 30.3954 132.251 30.6115 132.211 30.8275C132.194 30.9169 132.177 31.0062 132.184 31.0901C131.979 31.1462 131.97 31.2986 131.961 31.4511C131.958 31.4889 131.956 31.5267 131.951 31.5631C131.726 31.9799 131.565 32.4127 131.609 32.8989C131.611 33.0503 131.577 33.1959 131.544 33.3416L131.529 33.4071C131.483 33.3663 131.409 33.3551 131.28 33.4025L131.117 33.6644L131.024 33.8137C130.929 34.163 130.936 34.4732 131.223 34.6751C131.22 34.6791 131.217 34.6834 131.214 34.6873C131.171 34.7778 131.141 34.8725 131.129 34.9722C131.144 35.2098 131.115 35.4441 131.086 35.6777L131.086 35.678L131.086 35.6791L131.086 35.6802L131.085 35.6812C131.078 35.7442 131.07 35.8072 131.063 35.8702C131.064 35.9509 131.059 36.032 131.054 36.1132C131.043 36.3036 131.031 36.4942 131.1 36.6813C131.189 36.8761 131.109 37.0315 131.029 37.1871C130.99 37.263 130.951 37.3389 130.932 37.4194C130.88 37.6336 130.877 37.8461 130.9 38.0576C130.856 37.9938 130.77 37.9543 130.606 37.9589C129.847 41.6081 130.935 44.5073 134.2 46.4227C135.117 46.9602 136.136 47.3177 137.301 47.2006C139.513 46.9785 140.867 45.4736 142.174 44.0199L142.353 43.8218C145.124 40.7499 147.476 37.3622 149.194 33.5742C149.502 32.895 149.795 32.7765 150.263 33.4377C151.227 34.7992 152.59 35.5376 154.191 35.9109C156.02 36.3379 157.849 36.7705 159.667 37.2448C159.833 37.2882 160.017 37.3218 160.205 37.356C160.843 37.4727 161.524 37.597 161.694 38.1408C161.868 38.6981 161.389 39.0597 160.915 39.4169L160.915 39.417C160.716 39.5676 160.517 39.7175 160.369 39.8809C158.602 41.8324 156.212 42.6801 153.765 43.3567C153.045 43.5557 152.076 43.5646 152.293 42.4008C152.311 42.3048 152.328 42.2072 152.346 42.1086L152.346 42.107L152.346 42.1059C152.5 41.246 152.666 40.3103 153.308 39.7062C153.916 39.1335 154.083 38.5783 154 37.7076C152.123 38.4845 150.722 39.7243 149.519 41.2328C148.933 41.9673 149.274 42.5281 149.769 43.1192C150.09 43.5034 150.385 43.9095 150.68 44.3156L150.681 44.3162C150.807 44.4902 150.934 44.6641 151.062 44.8362C152.188 46.3454 153.826 46.8164 155.556 46.7217C158.239 46.575 160.672 45.5402 162.905 44.0833C164.15 43.2718 165.216 42.2873 165.696 40.7802C165.911 40.1065 165.888 39.5661 165.532 38.9677C164.107 36.577 161.784 35.4603 159.318 34.5324C157.581 33.8787 155.778 33.4875 153.972 33.0956L153.969 33.095C153.649 33.0254 153.328 32.9558 153.008 32.8848C151.876 32.6338 151.656 32.1098 152.157 31.2036L152.253 31.0301C152.91 29.8382 153.566 28.6481 154.643 27.7333C155.301 27.175 155.935 26.5892 156.57 26.0036L156.57 26.0034L156.571 26.0031C157.354 25.2798 158.138 24.5566 158.965 23.8855C160.657 22.5112 162.409 21.1964 164.493 20.429C164.684 20.6708 164.683 20.9132 164.497 21.1566C164.228 21.5951 163.899 22.1967 164.658 22.2819C165.036 22.3243 165.63 22.2174 166.131 21.8484C166.764 21.3814 166.948 20.7933 167.142 20.1708L167.143 20.1707C167.176 20.063 167.21 19.9544 167.247 19.8452C167.689 18.5281 167.497 17.9245 166.268 17.2617L166.268 17.2607ZM131.046 38.7358C130.904 38.6691 130.918 38.515 130.932 38.3613C130.934 38.3423 130.935 38.3234 130.937 38.3046C130.962 38.4401 130.995 38.5753 131.029 38.7095C131.139 38.6049 131.076 38.8799 131.046 38.7358ZM151.627 24.2677L151.632 24.2774L151.632 24.2779C151.634 24.2827 151.637 24.2874 151.639 24.292C151.625 24.3246 151.608 24.3558 151.583 24.3841C151.607 24.3433 151.621 24.3045 151.627 24.2673V24.2677ZM208.722 16.7656C210.343 16.7564 211.855 17.3593 213.028 18.5912L213.027 18.5908C213.664 19.2602 213.6 19.8513 212.867 20.3868C209.762 22.6561 207.307 25.5343 204.908 28.5125C203.711 29.9998 202.635 31.5647 201.56 33.1288C200.888 34.1065 200.216 35.0839 199.515 36.0418C199.125 36.5733 199.115 36.9579 199.483 37.5233C200.816 39.5716 202.099 41.6531 203.361 43.7464C203.398 43.8087 203.44 43.8705 203.482 43.933C203.703 44.2632 203.937 44.6105 203.657 45.1339C203.363 45.6842 202.977 45.5571 202.643 45.4469C202.551 45.4163 202.462 45.3871 202.38 45.374C200.326 45.0434 198.655 44.0349 197.528 42.258C197.073 41.5412 196.801 41.3583 196.255 42.2162C194.667 44.7128 193.577 47.4255 192.763 50.2383C192.478 51.2218 192.49 52.3592 192.842 53.3671C193.002 53.8266 192.838 54.1144 192.648 54.3766C192.481 54.6072 192.266 54.4793 192.07 54.3632C191.996 54.3193 191.925 54.2771 191.861 54.2565C188.307 53.1256 186.677 49.5909 187.971 45.8999C188.159 45.7049 188.284 45.4891 188.198 45.2046C188.312 44.2563 188.747 43.4471 189.294 42.6866C189.901 42.7506 190.006 42.3764 190.111 42.0024C190.158 41.8326 190.206 41.6628 190.3 41.534C190.467 41.2792 190.561 40.994 190.655 40.7089L190.655 40.7087C190.735 40.4642 190.816 40.2197 190.942 39.9946C191.249 39.6214 191.223 39.1884 191.197 38.7558C191.194 38.7079 191.191 38.6601 191.189 38.6124C192.31 37.7368 192.878 35.0507 192.176 33.8067C191.094 31.8903 190.277 29.8578 189.46 27.8255C188.906 26.4472 188.352 25.069 187.715 23.7271C187.643 23.5751 187.578 23.4174 187.513 23.2588L187.513 23.2586L187.513 23.2584L187.513 23.2583C187.203 22.506 186.885 21.7364 185.769 21.4772C187.817 20.5006 189.679 20.9733 191.493 21.5318C192.06 21.7065 192.46 22.2943 192.747 22.9196C193.448 24.4488 194.025 26.0244 194.603 27.5998C194.951 28.5504 195.299 29.5009 195.675 30.441C196.16 30.0836 196.411 29.5673 196.661 29.051C196.695 28.98 196.73 28.909 196.765 28.8385C197.094 28.5141 197.47 28.3181 197.95 28.4102L197.92 28.3612C197.993 28.3309 198.024 28.2911 198.013 28.2421C198 28.1885 197.984 28.1615 197.964 28.1615C197.934 28.0158 198.024 27.9645 198.142 27.9349C198.338 27.7336 198.476 27.4923 198.615 27.2509C198.76 26.9977 198.905 26.7444 199.117 26.5376C199.286 26.3527 199.453 26.1655 199.589 25.953C199.745 25.7447 199.91 25.5437 200.076 25.3428C200.323 25.0431 200.57 24.7435 200.785 24.4196C200.818 24.3896 200.849 24.3577 200.879 24.3255L200.873 24.2774L200.867 24.235C200.74 24.0268 200.714 23.8235 200.896 23.6301C201.036 23.336 201.199 23.0979 201.567 23.3541C201.478 23.0232 201.608 22.763 201.858 22.5673C202.606 21.9818 203.224 21.2669 203.841 20.5529C204.472 19.8225 205.103 19.093 205.871 18.5037C206.089 18.3366 206.302 18.1473 206.517 17.9567C207.177 17.3701 207.852 16.7706 208.722 16.7656ZM227.827 23.6495C226.839 22.8413 225.619 22.8712 224.415 23.1238C224.325 23.1429 224.174 23.2449 224.18 23.2913C224.257 23.8735 223.983 24.3267 223.709 24.779C223.503 25.1198 223.298 25.4602 223.243 25.855C223.335 26.0546 223.236 26.1905 223.136 26.3265C223.075 26.4101 223.014 26.4937 222.997 26.5921C222.765 27.0451 222.532 27.4977 222.299 27.9506C222.178 28.2496 221.932 28.3772 221.634 28.4345C221.443 28.66 221.425 28.9687 221.407 29.2773C221.379 29.7526 221.351 30.2279 220.69 30.3999C220.476 30.4759 220.429 30.6511 220.382 30.8262C220.352 30.9388 220.322 31.0514 220.248 31.1377L219.564 32.056L218.897 32.9507C218.636 33.5014 218.306 33.9915 217.736 34.2724L217.382 34.8463L217.224 35.1021L217.022 35.4306C216.862 35.7116 216.777 36.0188 216.693 36.3258C216.669 36.4101 216.646 36.4945 216.621 36.5782C216.473 36.7416 216.327 36.9067 216.18 37.0722L216.18 37.0723C215.499 37.84 214.811 38.6159 213.912 39.259C213.736 37.7525 213.929 36.3809 214.13 35.0095C214.262 34.8773 214.33 34.7191 214.33 34.5319C214.344 34.4149 214.357 34.2976 214.369 34.1803C214.397 33.9239 214.425 33.6674 214.47 33.4142C214.613 32.6207 214.759 31.8279 214.905 31.0351C215.161 29.6502 215.416 28.2653 215.652 26.877C215.878 25.5395 215.114 24.3679 214.033 24.4524C213.874 24.4648 213.715 24.4753 213.555 24.4858L213.555 24.4858L213.555 24.4858L213.555 24.4858C213.193 24.5096 212.829 24.5335 212.47 24.58C211.191 24.7455 210.892 25.0774 211.206 26.3102C211.3 26.6793 211.218 26.967 211.14 27.2454L211.119 27.3189C211.113 27.3385 211.108 27.358 211.103 27.3776C210.145 30.989 209.481 34.6372 209.549 38.391C209.516 38.6469 209.532 38.9022 209.549 39.1576C209.562 39.3582 209.575 39.5588 209.564 39.7597C209.442 40.4944 209.896 40.805 210.35 41.1154C210.574 41.2689 210.798 41.4224 210.953 41.627C212.567 43.7638 215.07 44.0292 217.181 42.0047C218.556 40.686 219.635 39.1472 220.7 37.59L220.747 37.5197C220.777 37.4763 220.806 37.4326 220.835 37.389C221.149 36.92 221.467 36.4437 222.024 36.1141C222.024 36.243 222.026 36.3586 222.027 36.4652V36.4655V36.4656C222.03 36.6709 222.032 36.8431 222.022 37.0147C221.841 40.0689 223.389 42.0797 225.948 43.4648C226.715 43.8799 227.602 43.8536 228.127 43.2211C228.602 42.6497 228.286 41.6955 227.673 41.4642C226.628 41.0701 226.633 40.3452 226.638 39.5661L226.639 39.4463L226.639 39.3663C226.629 36.0117 227.349 32.771 228.069 29.5325L228.069 29.5318C228.301 28.4883 228.533 27.4451 228.74 26.3984C228.98 25.1889 228.655 24.3261 227.827 23.6488L227.827 23.6495ZM24.0999 34.2083C24.0851 34.2471 24.0684 34.2856 24.0483 34.3234H24.0486C23.9009 34.4454 23.7658 34.5777 23.6891 34.7583C23.7605 34.3086 23.8319 33.859 23.9036 33.4093C24.1574 33.6261 24.1312 33.8913 24.105 34.1564C24.1033 34.1737 24.1016 34.191 24.0999 34.2083Z" fill="white"/>
</svg>
